<svg preserveAspectRatio="none" overflow="visible" style="display: block;" width="18" height="18" viewBox="0 0 18 18" fill="none" xmlns="http://www.w3.org/2000/svg">
<g id="File">
<g id="Vector">
<path fill-rule="evenodd" clip-rule="evenodd" d="M15.8858 15.0279C15.8858 15.5772 15.6673 16.1047 15.2793 16.4935C14.8903 16.8817 14.3633 17.0998 13.8138 17.1H4.77189C4.2226 17.1 3.69516 16.8815 3.30636 16.4935C2.91816 16.1045 2.70003 15.5775 2.6998 15.0279V2.97211C2.6998 2.42282 2.91831 1.89538 3.30636 1.50658C3.69532 1.11838 4.22235 0.900249 4.77189 0.900018H11.2413C11.591 0.900018 11.9263 1.03866 12.1734 1.28656L15.4993 4.61245C15.7472 4.8596 15.8858 5.1949 15.8858 5.54452V15.0279ZM14.7556 15.0279V5.54452C14.7557 5.51977 14.7508 5.49525 14.7414 5.47236C14.7319 5.44948 14.7181 5.42868 14.7006 5.41115L11.3747 2.08526C11.3572 2.06777 11.3364 2.05392 11.3135 2.04448C11.2906 2.03504 11.2661 2.03021 11.2413 2.03025H4.77189C4.52222 2.03065 4.28288 2.13001 4.10634 2.30656C3.92979 2.4831 3.83043 2.72244 3.83003 2.97211V15.0279C3.83043 15.2776 3.92979 15.5169 4.10634 15.6935C4.28288 15.87 4.52222 15.9694 4.77189 15.9698H13.8138C14.0634 15.9694 14.3028 15.87 14.4793 15.6935C14.6559 15.5169 14.7552 15.2776 14.7556 15.0279Z" fill="white"/>
<path fill-rule="evenodd" clip-rule="evenodd" d="M10.9882 1.84187C10.9882 1.69199 11.0477 1.54825 11.1537 1.44227C11.2597 1.33629 11.4034 1.27675 11.5533 1.27675C11.7032 1.27675 11.8469 1.33629 11.9529 1.44227C12.0589 1.54825 12.1184 1.69199 12.1184 1.84187V4.47908C12.1184 4.58306 12.2028 4.66745 12.3068 4.66745H14.944C15.0939 4.66745 15.2376 4.72699 15.3436 4.83297C15.4496 4.93895 15.5091 5.08269 15.5091 5.23257C15.5091 5.38244 15.4496 5.52618 15.3436 5.63216C15.2376 5.73814 15.0939 5.79768 14.944 5.79768H12.3068C11.9571 5.79768 11.6217 5.65876 11.3744 5.41147C11.1271 5.16419 10.9882 4.82879 10.9882 4.47908V1.84187ZM6.27887 8.43489C6.12899 8.43489 5.98525 8.37535 5.87927 8.26937C5.77329 8.16339 5.71375 8.01965 5.71375 7.86978C5.71375 7.7199 5.77329 7.57616 5.87927 7.47018C5.98525 7.3642 6.12899 7.30466 6.27887 7.30466H12.3068C12.4567 7.30466 12.6004 7.3642 12.7064 7.47018C12.8124 7.57616 12.8719 7.7199 12.8719 7.86978C12.8719 8.01965 12.8124 8.16339 12.7064 8.26937C12.6004 8.37535 12.4567 8.43489 12.3068 8.43489H6.27887ZM6.27887 11.0721C6.12899 11.0721 5.98525 11.0126 5.87927 10.9066C5.77329 10.8006 5.71375 10.6569 5.71375 10.507C5.71375 10.3571 5.77329 10.2134 5.87927 10.1074C5.98525 10.0014 6.12899 9.94187 6.27887 9.94187H12.3068C12.4567 9.94187 12.6004 10.0014 12.7064 10.1074C12.8124 10.2134 12.8719 10.3571 12.8719 10.507C12.8719 10.6569 12.8124 10.8006 12.7064 10.9066C12.6004 11.0126 12.4567 11.0721 12.3068 11.0721H6.27887ZM6.27887 13.7093C6.12899 13.7093 5.98525 13.6498 5.87927 13.5438C5.77329 13.4378 5.71375 13.2941 5.71375 13.1442C5.71375 12.9943 5.77329 12.8506 5.87927 12.7446C5.98525 12.6386 6.12899 12.5791 6.27887 12.5791H9.66957C9.81944 12.5791 9.96318 12.6386 10.0692 12.7446C10.1751 12.8506 10.2347 12.9943 10.2347 13.1442C10.2347 13.2941 10.1751 13.4378 10.0692 13.5438C9.96318 13.6498 9.81944 13.7093 9.66957 13.7093H6.27887Z" fill="white"/>
</g>
</g>
</svg>
